<mxfile host="app.diagrams.net" modified="2020-06-17T07:37:55.392Z" agent="5.0 (Windows NT 10.0; Win64; x64) AppleWebKit/537.36 (KHTML, like Gecko) Chrome/81.0.4044.92 Safari/537.36" etag="DXs5AHgthLct5JC0NQbw" version="13.2.4" type="github">
  <diagram id="NlTX4r5jblNEv5NolvV4" name="Page-1">
    <mxGraphModel dx="3555" dy="1783" grid="1" gridSize="10" guides="1" tooltips="1" connect="1" arrows="1" fold="1" page="1" pageScale="1" pageWidth="3300" pageHeight="4681" math="0" shadow="0">
      <root>
        <mxCell id="0" />
        <mxCell id="1" parent="0" />
        <mxCell id="GMuKRCzSjl4kFnSS3_tR-314" value="" style="rounded=0;whiteSpace=wrap;html=1;strokeColor=#000000;strokeWidth=3;fillColor=none;fontFamily=Times New Roman;fontSize=35;dashed=1;" parent="1" vertex="1">
          <mxGeometry x="650" y="1810" width="780" height="750" as="geometry" />
        </mxCell>
        <mxCell id="GMuKRCzSjl4kFnSS3_tR-317" value="" style="rounded=0;whiteSpace=wrap;html=1;strokeColor=#FF0000;strokeWidth=3;fillColor=none;fontFamily=Times New Roman;fontSize=35;dashed=1;" parent="1" vertex="1">
          <mxGeometry x="410" y="1805" width="1080" height="277" as="geometry" />
        </mxCell>
        <mxCell id="GMuKRCzSjl4kFnSS3_tR-313" value="" style="rounded=0;whiteSpace=wrap;html=1;strokeColor=#0000FF;strokeWidth=3;fillColor=none;fontFamily=Times New Roman;fontSize=35;dashed=1;" parent="1" vertex="1">
          <mxGeometry x="460" y="930" width="1000" height="1050" as="geometry" />
        </mxCell>
        <mxCell id="GMuKRCzSjl4kFnSS3_tR-119" style="edgeStyle=orthogonalEdgeStyle;rounded=0;orthogonalLoop=1;jettySize=auto;html=1;exitX=0.5;exitY=1;exitDx=0;exitDy=0;entryX=0.5;entryY=0;entryDx=0;entryDy=0;fontFamily=Times New Roman;fontSize=35;strokeColor=#000000;" parent="1" source="GMuKRCzSjl4kFnSS3_tR-59" target="GMuKRCzSjl4kFnSS3_tR-66" edge="1">
          <mxGeometry relative="1" as="geometry" />
        </mxCell>
        <mxCell id="GMuKRCzSjl4kFnSS3_tR-59" value="d&lt;sub&gt;0&lt;/sub&gt;" style="ellipse;whiteSpace=wrap;html=1;aspect=fixed;strokeColor=#000000;strokeWidth=3;fillColor=#f8cecc;fontFamily=Times New Roman;fontSize=35;" parent="1" vertex="1">
          <mxGeometry x="680" y="950" width="80" height="80" as="geometry" />
        </mxCell>
        <mxCell id="GMuKRCzSjl4kFnSS3_tR-120" style="edgeStyle=orthogonalEdgeStyle;rounded=0;orthogonalLoop=1;jettySize=auto;html=1;exitX=0.5;exitY=1;exitDx=0;exitDy=0;entryX=0.5;entryY=0;entryDx=0;entryDy=0;fontFamily=Times New Roman;fontSize=35;" parent="1" source="GMuKRCzSjl4kFnSS3_tR-60" target="GMuKRCzSjl4kFnSS3_tR-67" edge="1">
          <mxGeometry relative="1" as="geometry" />
        </mxCell>
        <mxCell id="GMuKRCzSjl4kFnSS3_tR-60" value="d&lt;sub&gt;1&lt;/sub&gt;" style="ellipse;whiteSpace=wrap;html=1;aspect=fixed;strokeColor=#000000;strokeWidth=3;fillColor=#f8cecc;fontFamily=Times New Roman;fontSize=35;" parent="1" vertex="1">
          <mxGeometry x="840" y="950" width="80" height="80" as="geometry" />
        </mxCell>
        <mxCell id="GMuKRCzSjl4kFnSS3_tR-121" style="edgeStyle=orthogonalEdgeStyle;rounded=0;orthogonalLoop=1;jettySize=auto;html=1;exitX=0.5;exitY=1;exitDx=0;exitDy=0;fontFamily=Times New Roman;fontSize=35;" parent="1" source="GMuKRCzSjl4kFnSS3_tR-61" target="GMuKRCzSjl4kFnSS3_tR-68" edge="1">
          <mxGeometry relative="1" as="geometry" />
        </mxCell>
        <mxCell id="GMuKRCzSjl4kFnSS3_tR-61" value="d&lt;sub&gt;2&lt;/sub&gt;" style="ellipse;whiteSpace=wrap;html=1;aspect=fixed;strokeColor=#000000;strokeWidth=3;fillColor=#f8cecc;fontFamily=Times New Roman;fontSize=35;" parent="1" vertex="1">
          <mxGeometry x="1000" y="950" width="80" height="80" as="geometry" />
        </mxCell>
        <mxCell id="GMuKRCzSjl4kFnSS3_tR-122" style="edgeStyle=orthogonalEdgeStyle;rounded=0;orthogonalLoop=1;jettySize=auto;html=1;exitX=0.5;exitY=1;exitDx=0;exitDy=0;entryX=0.5;entryY=0;entryDx=0;entryDy=0;fontFamily=Times New Roman;fontSize=35;" parent="1" source="GMuKRCzSjl4kFnSS3_tR-65" target="GMuKRCzSjl4kFnSS3_tR-70" edge="1">
          <mxGeometry relative="1" as="geometry" />
        </mxCell>
        <mxCell id="GMuKRCzSjl4kFnSS3_tR-65" value="d&lt;sub&gt;&lt;font style=&quot;font-size: 28px&quot;&gt;P-1&lt;/font&gt;&lt;/sub&gt;" style="ellipse;whiteSpace=wrap;html=1;aspect=fixed;strokeColor=#000000;strokeWidth=3;fillColor=#f8cecc;fontFamily=Times New Roman;fontSize=35;" parent="1" vertex="1">
          <mxGeometry x="1320" y="950" width="80" height="80" as="geometry" />
        </mxCell>
        <mxCell id="GMuKRCzSjl4kFnSS3_tR-71" value="h&lt;sub&gt;0&lt;/sub&gt;&lt;sup&gt;0&lt;/sup&gt;" style="ellipse;whiteSpace=wrap;html=1;aspect=fixed;strokeColor=#000000;strokeWidth=3;fillColor=#dae8fc;fontFamily=Times New Roman;fontSize=35;" parent="1" vertex="1">
          <mxGeometry x="680" y="1560" width="80" height="80" as="geometry" />
        </mxCell>
        <mxCell id="GMuKRCzSjl4kFnSS3_tR-72" value="h&lt;sub&gt;1&lt;/sub&gt;&lt;sup&gt;0&lt;/sup&gt;" style="ellipse;whiteSpace=wrap;html=1;aspect=fixed;strokeColor=#000000;strokeWidth=3;fillColor=#dae8fc;fontFamily=Times New Roman;fontSize=35;" parent="1" vertex="1">
          <mxGeometry x="840" y="1560" width="80" height="80" as="geometry" />
        </mxCell>
        <mxCell id="GMuKRCzSjl4kFnSS3_tR-73" value="h&lt;sub&gt;2&lt;/sub&gt;&lt;sup&gt;0&lt;/sup&gt;" style="ellipse;whiteSpace=wrap;html=1;aspect=fixed;strokeColor=#000000;strokeWidth=3;fillColor=#dae8fc;fontFamily=Times New Roman;fontSize=35;" parent="1" vertex="1">
          <mxGeometry x="1000" y="1560" width="80" height="80" as="geometry" />
        </mxCell>
        <mxCell id="GMuKRCzSjl4kFnSS3_tR-75" value="h&lt;sub&gt;&lt;font style=&quot;font-size: 28px&quot;&gt;P-1&lt;/font&gt;&lt;/sub&gt;&lt;sup&gt;0&lt;/sup&gt;" style="ellipse;whiteSpace=wrap;html=1;aspect=fixed;strokeColor=#000000;strokeWidth=3;fillColor=#dae8fc;fontFamily=Times New Roman;fontSize=35;" parent="1" vertex="1">
          <mxGeometry x="1320" y="1560" width="80" height="80" as="geometry" />
        </mxCell>
        <mxCell id="GMuKRCzSjl4kFnSS3_tR-94" style="edgeStyle=orthogonalEdgeStyle;rounded=0;orthogonalLoop=1;jettySize=auto;html=1;exitX=0.5;exitY=1;exitDx=0;exitDy=0;fontFamily=Times New Roman;fontSize=35;" parent="1" source="GMuKRCzSjl4kFnSS3_tR-66" target="GMuKRCzSjl4kFnSS3_tR-71" edge="1">
          <mxGeometry relative="1" as="geometry" />
        </mxCell>
        <mxCell id="GMuKRCzSjl4kFnSS3_tR-66" value="x&lt;sub&gt;0&lt;/sub&gt;" style="ellipse;whiteSpace=wrap;html=1;aspect=fixed;strokeColor=#000000;strokeWidth=3;fillColor=#dae8fc;fontFamily=Times New Roman;fontSize=35;" parent="1" vertex="1">
          <mxGeometry x="680" y="1080" width="80" height="80" as="geometry" />
        </mxCell>
        <mxCell id="GMuKRCzSjl4kFnSS3_tR-99" style="edgeStyle=orthogonalEdgeStyle;rounded=0;orthogonalLoop=1;jettySize=auto;html=1;exitX=0.5;exitY=1;exitDx=0;exitDy=0;entryX=0.5;entryY=0;entryDx=0;entryDy=0;fontFamily=Times New Roman;fontSize=35;" parent="1" source="GMuKRCzSjl4kFnSS3_tR-67" target="GMuKRCzSjl4kFnSS3_tR-72" edge="1">
          <mxGeometry relative="1" as="geometry" />
        </mxCell>
        <mxCell id="GMuKRCzSjl4kFnSS3_tR-67" value="x&lt;sub&gt;1&lt;/sub&gt;" style="ellipse;whiteSpace=wrap;html=1;aspect=fixed;strokeColor=#000000;strokeWidth=3;fillColor=#dae8fc;fontFamily=Times New Roman;fontSize=35;" parent="1" vertex="1">
          <mxGeometry x="840" y="1180" width="80" height="80" as="geometry" />
        </mxCell>
        <mxCell id="GMuKRCzSjl4kFnSS3_tR-104" style="edgeStyle=orthogonalEdgeStyle;rounded=0;orthogonalLoop=1;jettySize=auto;html=1;exitX=0.5;exitY=1;exitDx=0;exitDy=0;entryX=0.5;entryY=0;entryDx=0;entryDy=0;fontFamily=Times New Roman;fontSize=35;" parent="1" source="GMuKRCzSjl4kFnSS3_tR-68" target="GMuKRCzSjl4kFnSS3_tR-73" edge="1">
          <mxGeometry relative="1" as="geometry" />
        </mxCell>
        <mxCell id="GMuKRCzSjl4kFnSS3_tR-68" value="x&lt;sub&gt;2&lt;/sub&gt;" style="ellipse;whiteSpace=wrap;html=1;aspect=fixed;strokeColor=#000000;strokeWidth=3;fillColor=#dae8fc;fontFamily=Times New Roman;fontSize=35;" parent="1" vertex="1">
          <mxGeometry x="1000" y="1280" width="80" height="80" as="geometry" />
        </mxCell>
        <mxCell id="GMuKRCzSjl4kFnSS3_tR-113" style="edgeStyle=orthogonalEdgeStyle;rounded=0;orthogonalLoop=1;jettySize=auto;html=1;exitX=0.5;exitY=1;exitDx=0;exitDy=0;entryX=0.5;entryY=0;entryDx=0;entryDy=0;fontFamily=Times New Roman;fontSize=35;" parent="1" source="GMuKRCzSjl4kFnSS3_tR-70" target="GMuKRCzSjl4kFnSS3_tR-75" edge="1">
          <mxGeometry relative="1" as="geometry" />
        </mxCell>
        <mxCell id="GMuKRCzSjl4kFnSS3_tR-70" value="" style="ellipse;whiteSpace=wrap;html=1;aspect=fixed;strokeColor=#000000;strokeWidth=3;fillColor=none;fontFamily=Times New Roman;fontSize=35;" parent="1" vertex="1">
          <mxGeometry x="1320" y="1440" width="80" height="80" as="geometry" />
        </mxCell>
        <mxCell id="GMuKRCzSjl4kFnSS3_tR-107" style="edgeStyle=orthogonalEdgeStyle;rounded=0;orthogonalLoop=1;jettySize=auto;html=1;exitX=1;exitY=0.5;exitDx=0;exitDy=0;fontFamily=Times New Roman;fontSize=35;" parent="1" source="GMuKRCzSjl4kFnSS3_tR-79" target="GMuKRCzSjl4kFnSS3_tR-66" edge="1">
          <mxGeometry relative="1" as="geometry" />
        </mxCell>
        <mxCell id="GMuKRCzSjl4kFnSS3_tR-79" value="a&lt;sub&gt;0&lt;/sub&gt;" style="ellipse;whiteSpace=wrap;html=1;aspect=fixed;strokeColor=#000000;strokeWidth=3;fillColor=#ffe6cc;fontFamily=Times New Roman;fontSize=35;" parent="1" vertex="1">
          <mxGeometry x="500" y="1080" width="80" height="80" as="geometry" />
        </mxCell>
        <mxCell id="GMuKRCzSjl4kFnSS3_tR-108" style="edgeStyle=orthogonalEdgeStyle;rounded=0;orthogonalLoop=1;jettySize=auto;html=1;exitX=1;exitY=0.5;exitDx=0;exitDy=0;entryX=0;entryY=0.5;entryDx=0;entryDy=0;fontFamily=Times New Roman;fontSize=35;" parent="1" source="GMuKRCzSjl4kFnSS3_tR-80" target="GMuKRCzSjl4kFnSS3_tR-67" edge="1">
          <mxGeometry relative="1" as="geometry" />
        </mxCell>
        <mxCell id="GMuKRCzSjl4kFnSS3_tR-80" value="a&lt;sub&gt;1&lt;/sub&gt;" style="ellipse;whiteSpace=wrap;html=1;aspect=fixed;strokeColor=#000000;strokeWidth=3;fillColor=#ffe6cc;fontFamily=Times New Roman;fontSize=35;" parent="1" vertex="1">
          <mxGeometry x="500" y="1180" width="80" height="80" as="geometry" />
        </mxCell>
        <mxCell id="GMuKRCzSjl4kFnSS3_tR-109" style="edgeStyle=orthogonalEdgeStyle;rounded=0;orthogonalLoop=1;jettySize=auto;html=1;exitX=1;exitY=0.5;exitDx=0;exitDy=0;entryX=0;entryY=0.5;entryDx=0;entryDy=0;fontFamily=Times New Roman;fontSize=35;" parent="1" source="GMuKRCzSjl4kFnSS3_tR-81" target="GMuKRCzSjl4kFnSS3_tR-68" edge="1">
          <mxGeometry relative="1" as="geometry" />
        </mxCell>
        <mxCell id="GMuKRCzSjl4kFnSS3_tR-81" value="a&lt;sub&gt;2&lt;/sub&gt;" style="ellipse;whiteSpace=wrap;html=1;aspect=fixed;strokeColor=#000000;strokeWidth=3;fillColor=#ffe6cc;fontFamily=Times New Roman;fontSize=35;" parent="1" vertex="1">
          <mxGeometry x="500" y="1280" width="80" height="80" as="geometry" />
        </mxCell>
        <mxCell id="GMuKRCzSjl4kFnSS3_tR-110" style="edgeStyle=orthogonalEdgeStyle;rounded=0;orthogonalLoop=1;jettySize=auto;html=1;exitX=1;exitY=0.5;exitDx=0;exitDy=0;entryX=0;entryY=0.5;entryDx=0;entryDy=0;fontFamily=Times New Roman;fontSize=35;" parent="1" source="GMuKRCzSjl4kFnSS3_tR-82" target="GMuKRCzSjl4kFnSS3_tR-70" edge="1">
          <mxGeometry relative="1" as="geometry" />
        </mxCell>
        <mxCell id="GMuKRCzSjl4kFnSS3_tR-82" value="a&lt;sub&gt;&lt;font style=&quot;font-size: 28px&quot;&gt;P-1&lt;/font&gt;&lt;/sub&gt;" style="ellipse;whiteSpace=wrap;html=1;aspect=fixed;strokeColor=#000000;strokeWidth=3;fillColor=#ffe6cc;fontFamily=Times New Roman;fontSize=35;" parent="1" vertex="1">
          <mxGeometry x="500" y="1440" width="80" height="80" as="geometry" />
        </mxCell>
        <mxCell id="GMuKRCzSjl4kFnSS3_tR-172" style="edgeStyle=orthogonalEdgeStyle;rounded=0;orthogonalLoop=1;jettySize=auto;html=1;exitX=0.5;exitY=1;exitDx=0;exitDy=0;entryX=0.5;entryY=0;entryDx=0;entryDy=0;fontFamily=Times New Roman;fontSize=35;" parent="1" source="GMuKRCzSjl4kFnSS3_tR-84" target="GMuKRCzSjl4kFnSS3_tR-169" edge="1">
          <mxGeometry relative="1" as="geometry" />
        </mxCell>
        <mxCell id="GMuKRCzSjl4kFnSS3_tR-84" value="h&lt;sub&gt;0&lt;/sub&gt;&lt;sup&gt;1&lt;/sup&gt;" style="ellipse;whiteSpace=wrap;html=1;aspect=fixed;strokeColor=#000000;strokeWidth=3;fillColor=#dae8fc;fontFamily=Times New Roman;fontSize=35;" parent="1" vertex="1">
          <mxGeometry x="780" y="1720" width="80" height="80" as="geometry" />
        </mxCell>
        <mxCell id="GMuKRCzSjl4kFnSS3_tR-176" style="edgeStyle=orthogonalEdgeStyle;rounded=0;orthogonalLoop=1;jettySize=auto;html=1;exitX=0.5;exitY=1;exitDx=0;exitDy=0;fontFamily=Times New Roman;fontSize=35;" parent="1" source="GMuKRCzSjl4kFnSS3_tR-85" target="GMuKRCzSjl4kFnSS3_tR-170" edge="1">
          <mxGeometry relative="1" as="geometry" />
        </mxCell>
        <mxCell id="GMuKRCzSjl4kFnSS3_tR-85" value="h&lt;sub&gt;1&lt;/sub&gt;&lt;sup&gt;1&lt;/sup&gt;" style="ellipse;whiteSpace=wrap;html=1;aspect=fixed;strokeColor=#000000;strokeWidth=3;fillColor=#dae8fc;fontFamily=Times New Roman;fontSize=35;" parent="1" vertex="1">
          <mxGeometry x="930" y="1720" width="80" height="80" as="geometry" />
        </mxCell>
        <mxCell id="GMuKRCzSjl4kFnSS3_tR-180" style="edgeStyle=orthogonalEdgeStyle;rounded=0;orthogonalLoop=1;jettySize=auto;html=1;exitX=0.5;exitY=1;exitDx=0;exitDy=0;entryX=0.5;entryY=0;entryDx=0;entryDy=0;fontFamily=Times New Roman;fontSize=35;" parent="1" source="GMuKRCzSjl4kFnSS3_tR-86" target="GMuKRCzSjl4kFnSS3_tR-171" edge="1">
          <mxGeometry relative="1" as="geometry" />
        </mxCell>
        <mxCell id="GMuKRCzSjl4kFnSS3_tR-86" value="" style="ellipse;whiteSpace=wrap;html=1;aspect=fixed;strokeColor=#000000;strokeWidth=3;fillColor=none;fontFamily=Times New Roman;fontSize=35;" parent="1" vertex="1">
          <mxGeometry x="1260" y="1720" width="80" height="80" as="geometry" />
        </mxCell>
        <mxCell id="GMuKRCzSjl4kFnSS3_tR-89" value="" style="endArrow=classic;html=1;fontFamily=Times New Roman;fontSize=35;entryX=0;entryY=0;entryDx=0;entryDy=0;" parent="1" target="GMuKRCzSjl4kFnSS3_tR-84" edge="1">
          <mxGeometry width="50" height="50" relative="1" as="geometry">
            <mxPoint x="738" y="1638" as="sourcePoint" />
            <mxPoint x="770" y="1610" as="targetPoint" />
          </mxGeometry>
        </mxCell>
        <mxCell id="GMuKRCzSjl4kFnSS3_tR-92" value="" style="endArrow=classic;html=1;fontFamily=Times New Roman;fontSize=35;entryX=0;entryY=0;entryDx=0;entryDy=0;exitX=1;exitY=1;exitDx=0;exitDy=0;" parent="1" source="GMuKRCzSjl4kFnSS3_tR-71" target="GMuKRCzSjl4kFnSS3_tR-85" edge="1">
          <mxGeometry width="50" height="50" relative="1" as="geometry">
            <mxPoint x="760" y="1617" as="sourcePoint" />
            <mxPoint x="890" y="1730" as="targetPoint" />
          </mxGeometry>
        </mxCell>
        <mxCell id="GMuKRCzSjl4kFnSS3_tR-95" value="" style="endArrow=classic;html=1;fontFamily=Times New Roman;fontSize=35;exitX=0.635;exitY=1.002;exitDx=0;exitDy=0;exitPerimeter=0;entryX=0.5;entryY=0;entryDx=0;entryDy=0;" parent="1" source="GMuKRCzSjl4kFnSS3_tR-66" target="GMuKRCzSjl4kFnSS3_tR-72" edge="1">
          <mxGeometry width="50" height="50" relative="1" as="geometry">
            <mxPoint x="750" y="1360" as="sourcePoint" />
            <mxPoint x="800" y="1310" as="targetPoint" />
          </mxGeometry>
        </mxCell>
        <mxCell id="GMuKRCzSjl4kFnSS3_tR-96" value="" style="endArrow=classic;html=1;fontFamily=Times New Roman;fontSize=35;" parent="1" source="GMuKRCzSjl4kFnSS3_tR-66" target="GMuKRCzSjl4kFnSS3_tR-73" edge="1">
          <mxGeometry width="50" height="50" relative="1" as="geometry">
            <mxPoint x="746.4000000000001" y="1167.44" as="sourcePoint" />
            <mxPoint x="889.9999999999995" y="1569.9999999999995" as="targetPoint" />
            <Array as="points">
              <mxPoint x="870" y="1390" />
              <mxPoint x="930" y="1490" />
            </Array>
          </mxGeometry>
        </mxCell>
        <mxCell id="GMuKRCzSjl4kFnSS3_tR-98" value="" style="curved=1;endArrow=classic;html=1;fontFamily=Times New Roman;fontSize=35;exitX=1;exitY=1;exitDx=0;exitDy=0;entryX=0;entryY=0;entryDx=0;entryDy=0;" parent="1" source="GMuKRCzSjl4kFnSS3_tR-66" target="GMuKRCzSjl4kFnSS3_tR-75" edge="1">
          <mxGeometry width="50" height="50" relative="1" as="geometry">
            <mxPoint x="750" y="1480" as="sourcePoint" />
            <mxPoint x="800" y="1430" as="targetPoint" />
            <Array as="points">
              <mxPoint x="890" y="1350" />
              <mxPoint x="1070" y="1470" />
            </Array>
          </mxGeometry>
        </mxCell>
        <mxCell id="GMuKRCzSjl4kFnSS3_tR-101" value="" style="endArrow=classic;html=1;fontFamily=Times New Roman;fontSize=35;" parent="1" source="GMuKRCzSjl4kFnSS3_tR-67" target="GMuKRCzSjl4kFnSS3_tR-71" edge="1">
          <mxGeometry width="50" height="50" relative="1" as="geometry">
            <mxPoint x="740" y="1450" as="sourcePoint" />
            <mxPoint x="790" y="1400" as="targetPoint" />
          </mxGeometry>
        </mxCell>
        <mxCell id="GMuKRCzSjl4kFnSS3_tR-103" value="" style="endArrow=classic;html=1;fontFamily=Times New Roman;fontSize=35;exitX=1;exitY=1;exitDx=0;exitDy=0;" parent="1" source="GMuKRCzSjl4kFnSS3_tR-67" target="GMuKRCzSjl4kFnSS3_tR-73" edge="1">
          <mxGeometry width="50" height="50" relative="1" as="geometry">
            <mxPoint x="873.7297173131269" y="1286.541454559042" as="sourcePoint" />
            <mxPoint x="746.1898844823136" y="1573.4228535769953" as="targetPoint" />
          </mxGeometry>
        </mxCell>
        <mxCell id="GMuKRCzSjl4kFnSS3_tR-106" value="" style="endArrow=classic;html=1;fontFamily=Times New Roman;fontSize=35;entryX=0.5;entryY=0;entryDx=0;entryDy=0;" parent="1" source="GMuKRCzSjl4kFnSS3_tR-68" target="GMuKRCzSjl4kFnSS3_tR-72" edge="1">
          <mxGeometry width="50" height="50" relative="1" as="geometry">
            <mxPoint x="910" y="1490" as="sourcePoint" />
            <mxPoint x="960" y="1440" as="targetPoint" />
          </mxGeometry>
        </mxCell>
        <mxCell id="GMuKRCzSjl4kFnSS3_tR-112" value="" style="endArrow=classic;html=1;fontFamily=Times New Roman;fontSize=35;entryX=0.273;entryY=-0.005;entryDx=0;entryDy=0;exitX=1;exitY=1;exitDx=0;exitDy=0;entryPerimeter=0;" parent="1" source="GMuKRCzSjl4kFnSS3_tR-68" target="GMuKRCzSjl4kFnSS3_tR-75" edge="1">
          <mxGeometry width="50" height="50" relative="1" as="geometry">
            <mxPoint x="1025.0121980977838" y="1401.2347523777712" as="sourcePoint" />
            <mxPoint x="890" y="1570" as="targetPoint" />
          </mxGeometry>
        </mxCell>
        <mxCell id="GMuKRCzSjl4kFnSS3_tR-114" value="" style="endArrow=classic;html=1;fontFamily=Times New Roman;fontSize=35;exitX=0.063;exitY=0.794;exitDx=0;exitDy=0;entryX=1;entryY=0;entryDx=0;entryDy=0;exitPerimeter=0;" parent="1" source="GMuKRCzSjl4kFnSS3_tR-70" target="GMuKRCzSjl4kFnSS3_tR-73" edge="1">
          <mxGeometry width="50" height="50" relative="1" as="geometry">
            <mxPoint x="500" y="1150" as="sourcePoint" />
            <mxPoint x="550" y="1100" as="targetPoint" />
          </mxGeometry>
        </mxCell>
        <mxCell id="GMuKRCzSjl4kFnSS3_tR-115" value="" style="endArrow=classic;html=1;fontFamily=Times New Roman;fontSize=35;entryX=1;entryY=0;entryDx=0;entryDy=0;exitX=0.033;exitY=0.696;exitDx=0;exitDy=0;exitPerimeter=0;" parent="1" source="GMuKRCzSjl4kFnSS3_tR-70" target="GMuKRCzSjl4kFnSS3_tR-72" edge="1">
          <mxGeometry width="50" height="50" relative="1" as="geometry">
            <mxPoint x="1321" y="1497" as="sourcePoint" />
            <mxPoint x="1078.2842712474621" y="1581.7157287525379" as="targetPoint" />
          </mxGeometry>
        </mxCell>
        <mxCell id="GMuKRCzSjl4kFnSS3_tR-116" value="" style="endArrow=classic;html=1;fontFamily=Times New Roman;fontSize=35;exitX=-0.004;exitY=0.633;exitDx=0;exitDy=0;exitPerimeter=0;entryX=1;entryY=0;entryDx=0;entryDy=0;" parent="1" source="GMuKRCzSjl4kFnSS3_tR-70" target="GMuKRCzSjl4kFnSS3_tR-71" edge="1">
          <mxGeometry width="50" height="50" relative="1" as="geometry">
            <mxPoint x="1332.64" y="1505.68" as="sourcePoint" />
            <mxPoint x="918.2842712474619" y="1581.715728752538" as="targetPoint" />
          </mxGeometry>
        </mxCell>
        <mxCell id="GMuKRCzSjl4kFnSS3_tR-118" value="" style="endArrow=classic;html=1;fontFamily=Times New Roman;fontSize=35;exitX=0.959;exitY=0.755;exitDx=0;exitDy=0;exitPerimeter=0;" parent="1" source="GMuKRCzSjl4kFnSS3_tR-71" target="GMuKRCzSjl4kFnSS3_tR-86" edge="1">
          <mxGeometry width="50" height="50" relative="1" as="geometry">
            <mxPoint x="758.2842712474619" y="1638.284271247462" as="sourcePoint" />
            <mxPoint x="1240" y="1742" as="targetPoint" />
          </mxGeometry>
        </mxCell>
        <mxCell id="GMuKRCzSjl4kFnSS3_tR-123" value="" style="endArrow=classic;html=1;fontFamily=Times New Roman;fontSize=35;entryX=0.5;entryY=0;entryDx=0;entryDy=0;" parent="1" source="GMuKRCzSjl4kFnSS3_tR-72" target="GMuKRCzSjl4kFnSS3_tR-84" edge="1">
          <mxGeometry width="50" height="50" relative="1" as="geometry">
            <mxPoint x="748" y="1648" as="sourcePoint" />
            <mxPoint x="801.7157287525379" y="1741.7157287525379" as="targetPoint" />
          </mxGeometry>
        </mxCell>
        <mxCell id="GMuKRCzSjl4kFnSS3_tR-124" value="" style="endArrow=classic;html=1;fontFamily=Times New Roman;fontSize=35;entryX=0.252;entryY=0.083;entryDx=0;entryDy=0;entryPerimeter=0;exitX=0.702;exitY=0.959;exitDx=0;exitDy=0;exitPerimeter=0;" parent="1" source="GMuKRCzSjl4kFnSS3_tR-72" target="GMuKRCzSjl4kFnSS3_tR-85" edge="1">
          <mxGeometry width="50" height="50" relative="1" as="geometry">
            <mxPoint x="880" y="1630" as="sourcePoint" />
            <mxPoint x="830" y="1730" as="targetPoint" />
          </mxGeometry>
        </mxCell>
        <mxCell id="GMuKRCzSjl4kFnSS3_tR-125" value="" style="endArrow=classic;html=1;fontFamily=Times New Roman;fontSize=35;entryX=0;entryY=0;entryDx=0;entryDy=0;exitX=1;exitY=1;exitDx=0;exitDy=0;" parent="1" source="GMuKRCzSjl4kFnSS3_tR-72" target="GMuKRCzSjl4kFnSS3_tR-86" edge="1">
          <mxGeometry width="50" height="50" relative="1" as="geometry">
            <mxPoint x="890" y="1650" as="sourcePoint" />
            <mxPoint x="960.1599999999999" y="1736.6400000000003" as="targetPoint" />
          </mxGeometry>
        </mxCell>
        <mxCell id="GMuKRCzSjl4kFnSS3_tR-126" value="" style="endArrow=classic;html=1;fontFamily=Times New Roman;fontSize=35;exitX=0.328;exitY=0.963;exitDx=0;exitDy=0;exitPerimeter=0;entryX=0.658;entryY=0.033;entryDx=0;entryDy=0;entryPerimeter=0;" parent="1" source="GMuKRCzSjl4kFnSS3_tR-73" target="GMuKRCzSjl4kFnSS3_tR-85" edge="1">
          <mxGeometry width="50" height="50" relative="1" as="geometry">
            <mxPoint x="1025" y="1641" as="sourcePoint" />
            <mxPoint x="983" y="1718" as="targetPoint" />
          </mxGeometry>
        </mxCell>
        <mxCell id="GMuKRCzSjl4kFnSS3_tR-127" value="" style="endArrow=classic;html=1;fontFamily=Times New Roman;fontSize=35;exitX=1;exitY=1;exitDx=0;exitDy=0;entryX=0.25;entryY=0.044;entryDx=0;entryDy=0;entryPerimeter=0;" parent="1" source="GMuKRCzSjl4kFnSS3_tR-73" target="GMuKRCzSjl4kFnSS3_tR-86" edge="1">
          <mxGeometry width="50" height="50" relative="1" as="geometry">
            <mxPoint x="1036.2399999999998" y="1647.04" as="sourcePoint" />
            <mxPoint x="992.6400000000003" y="1732.6399999999999" as="targetPoint" />
          </mxGeometry>
        </mxCell>
        <mxCell id="GMuKRCzSjl4kFnSS3_tR-128" value="" style="endArrow=classic;html=1;fontFamily=Times New Roman;fontSize=35;exitX=0;exitY=1;exitDx=0;exitDy=0;entryX=1;entryY=0;entryDx=0;entryDy=0;" parent="1" source="GMuKRCzSjl4kFnSS3_tR-73" target="GMuKRCzSjl4kFnSS3_tR-84" edge="1">
          <mxGeometry width="50" height="50" relative="1" as="geometry">
            <mxPoint x="1036.2399999999998" y="1647.04" as="sourcePoint" />
            <mxPoint x="992.6400000000003" y="1732.6399999999999" as="targetPoint" />
          </mxGeometry>
        </mxCell>
        <mxCell id="GMuKRCzSjl4kFnSS3_tR-129" value="" style="endArrow=classic;html=1;fontFamily=Times New Roman;fontSize=35;exitX=0;exitY=1;exitDx=0;exitDy=0;entryX=0.927;entryY=0.21;entryDx=0;entryDy=0;entryPerimeter=0;" parent="1" source="GMuKRCzSjl4kFnSS3_tR-75" target="GMuKRCzSjl4kFnSS3_tR-84" edge="1">
          <mxGeometry width="50" height="50" relative="1" as="geometry">
            <mxPoint x="1036.2399999999998" y="1647.04" as="sourcePoint" />
            <mxPoint x="992.6400000000003" y="1732.6399999999999" as="targetPoint" />
          </mxGeometry>
        </mxCell>
        <mxCell id="GMuKRCzSjl4kFnSS3_tR-130" value="" style="endArrow=classic;html=1;fontFamily=Times New Roman;fontSize=35;exitX=0.229;exitY=0.95;exitDx=0;exitDy=0;exitPerimeter=0;" parent="1" source="GMuKRCzSjl4kFnSS3_tR-75" edge="1">
          <mxGeometry width="50" height="50" relative="1" as="geometry">
            <mxPoint x="1046.2399999999998" y="1657.04" as="sourcePoint" />
            <mxPoint x="1010" y="1743" as="targetPoint" />
          </mxGeometry>
        </mxCell>
        <mxCell id="GMuKRCzSjl4kFnSS3_tR-131" value="" style="endArrow=classic;html=1;fontFamily=Times New Roman;fontSize=35;exitX=0.5;exitY=1;exitDx=0;exitDy=0;entryX=0.5;entryY=0;entryDx=0;entryDy=0;" parent="1" source="GMuKRCzSjl4kFnSS3_tR-75" target="GMuKRCzSjl4kFnSS3_tR-86" edge="1">
          <mxGeometry width="50" height="50" relative="1" as="geometry">
            <mxPoint x="1056.2399999999998" y="1667.04" as="sourcePoint" />
            <mxPoint x="1012.6400000000003" y="1752.6399999999999" as="targetPoint" />
          </mxGeometry>
        </mxCell>
        <mxCell id="GMuKRCzSjl4kFnSS3_tR-136" value="x&#39;&lt;sub&gt;0&lt;/sub&gt;" style="ellipse;whiteSpace=wrap;html=1;aspect=fixed;strokeColor=#000000;strokeWidth=3;fillColor=#dae8fc;fontFamily=Times New Roman;fontSize=35;" parent="1" vertex="1">
          <mxGeometry x="780" y="2090" width="80" height="80" as="geometry" />
        </mxCell>
        <mxCell id="GMuKRCzSjl4kFnSS3_tR-137" value="x&#39;&lt;sub&gt;1&lt;/sub&gt;" style="ellipse;whiteSpace=wrap;html=1;aspect=fixed;strokeColor=#000000;strokeWidth=3;fillColor=#dae8fc;fontFamily=Times New Roman;fontSize=35;" parent="1" vertex="1">
          <mxGeometry x="930" y="2090" width="80" height="80" as="geometry" />
        </mxCell>
        <mxCell id="GMuKRCzSjl4kFnSS3_tR-138" value="x&#39;&lt;sub&gt;&lt;font style=&quot;font-size: 25px&quot;&gt;K-1&lt;/font&gt;&lt;/sub&gt;" style="ellipse;whiteSpace=wrap;html=1;aspect=fixed;strokeColor=#000000;strokeWidth=3;fillColor=#dae8fc;fontFamily=Times New Roman;fontSize=35;" parent="1" vertex="1">
          <mxGeometry x="1260" y="2090" width="80" height="80" as="geometry" />
        </mxCell>
        <mxCell id="GMuKRCzSjl4kFnSS3_tR-225" style="edgeStyle=orthogonalEdgeStyle;rounded=0;orthogonalLoop=1;jettySize=auto;html=1;exitX=0.5;exitY=1;exitDx=0;exitDy=0;fontFamily=Times New Roman;fontSize=35;" parent="1" source="GMuKRCzSjl4kFnSS3_tR-139" target="GMuKRCzSjl4kFnSS3_tR-143" edge="1">
          <mxGeometry relative="1" as="geometry" />
        </mxCell>
        <mxCell id="GMuKRCzSjl4kFnSS3_tR-139" value="h&lt;sub&gt;0&lt;/sub&gt;&lt;sup&gt;2&lt;/sup&gt;" style="ellipse;whiteSpace=wrap;html=1;aspect=fixed;strokeColor=#000000;strokeWidth=3;fillColor=#dae8fc;fontFamily=Times New Roman;fontSize=35;" parent="1" vertex="1">
          <mxGeometry x="680" y="2260" width="80" height="80" as="geometry" />
        </mxCell>
        <mxCell id="GMuKRCzSjl4kFnSS3_tR-226" style="edgeStyle=orthogonalEdgeStyle;rounded=0;orthogonalLoop=1;jettySize=auto;html=1;exitX=0.5;exitY=1;exitDx=0;exitDy=0;entryX=0.5;entryY=0;entryDx=0;entryDy=0;fontFamily=Times New Roman;fontSize=35;" parent="1" source="GMuKRCzSjl4kFnSS3_tR-140" target="GMuKRCzSjl4kFnSS3_tR-144" edge="1">
          <mxGeometry relative="1" as="geometry" />
        </mxCell>
        <mxCell id="GMuKRCzSjl4kFnSS3_tR-140" value="h&lt;sub&gt;1&lt;/sub&gt;&lt;sup&gt;2&lt;/sup&gt;" style="ellipse;whiteSpace=wrap;html=1;aspect=fixed;strokeColor=#000000;strokeWidth=3;fillColor=#dae8fc;fontFamily=Times New Roman;fontSize=35;" parent="1" vertex="1">
          <mxGeometry x="840" y="2260" width="80" height="80" as="geometry" />
        </mxCell>
        <mxCell id="GMuKRCzSjl4kFnSS3_tR-227" style="edgeStyle=orthogonalEdgeStyle;rounded=0;orthogonalLoop=1;jettySize=auto;html=1;exitX=0.5;exitY=1;exitDx=0;exitDy=0;entryX=0.5;entryY=0;entryDx=0;entryDy=0;fontFamily=Times New Roman;fontSize=35;" parent="1" source="GMuKRCzSjl4kFnSS3_tR-141" target="GMuKRCzSjl4kFnSS3_tR-145" edge="1">
          <mxGeometry relative="1" as="geometry" />
        </mxCell>
        <mxCell id="GMuKRCzSjl4kFnSS3_tR-141" value="&lt;span style=&quot;font-size: 35px;&quot;&gt;Y&lt;/span&gt;&lt;sub style=&quot;font-size: 35px;&quot;&gt;in&lt;/sub&gt;&lt;sup style=&quot;font-size: 35px;&quot;&gt;2&lt;/sup&gt;" style="ellipse;whiteSpace=wrap;html=1;aspect=fixed;strokeColor=#000000;strokeWidth=3;fillColor=none;fontFamily=Times New Roman;fontSize=35;" parent="1" vertex="1">
          <mxGeometry x="1000" y="2260" width="80" height="80" as="geometry" />
        </mxCell>
        <mxCell id="GMuKRCzSjl4kFnSS3_tR-228" style="edgeStyle=orthogonalEdgeStyle;rounded=0;orthogonalLoop=1;jettySize=auto;html=1;exitX=0.5;exitY=1;exitDx=0;exitDy=0;entryX=0.5;entryY=0;entryDx=0;entryDy=0;fontFamily=Times New Roman;fontSize=35;" parent="1" source="GMuKRCzSjl4kFnSS3_tR-142" target="GMuKRCzSjl4kFnSS3_tR-146" edge="1">
          <mxGeometry relative="1" as="geometry" />
        </mxCell>
        <mxCell id="GMuKRCzSjl4kFnSS3_tR-142" value="h&lt;sub&gt;&lt;font style=&quot;font-size: 28px&quot;&gt;P-1&lt;/font&gt;&lt;/sub&gt;&lt;sup&gt;2&lt;/sup&gt;" style="ellipse;whiteSpace=wrap;html=1;aspect=fixed;strokeColor=#000000;strokeWidth=3;fillColor=#dae8fc;fontFamily=Times New Roman;fontSize=35;" parent="1" vertex="1">
          <mxGeometry x="1320" y="2260" width="80" height="80" as="geometry" />
        </mxCell>
        <mxCell id="GMuKRCzSjl4kFnSS3_tR-143" value="y&lt;sub&gt;0&lt;/sub&gt;" style="ellipse;whiteSpace=wrap;html=1;aspect=fixed;strokeColor=#000000;strokeWidth=3;fillColor=#dae8fc;fontFamily=Times New Roman;fontSize=35;" parent="1" vertex="1">
          <mxGeometry x="680" y="2420" width="80" height="80" as="geometry" />
        </mxCell>
        <mxCell id="GMuKRCzSjl4kFnSS3_tR-144" value="y&lt;sub&gt;1&lt;/sub&gt;" style="ellipse;whiteSpace=wrap;html=1;aspect=fixed;strokeColor=#000000;strokeWidth=3;fillColor=#dae8fc;fontFamily=Times New Roman;fontSize=35;" parent="1" vertex="1">
          <mxGeometry x="840" y="2420" width="80" height="80" as="geometry" />
        </mxCell>
        <mxCell id="GMuKRCzSjl4kFnSS3_tR-145" value="y&lt;sub&gt;2&lt;/sub&gt;" style="ellipse;whiteSpace=wrap;html=1;aspect=fixed;strokeColor=#000000;strokeWidth=3;fillColor=#dae8fc;fontFamily=Times New Roman;fontSize=35;" parent="1" vertex="1">
          <mxGeometry x="1000" y="2420" width="80" height="80" as="geometry" />
        </mxCell>
        <mxCell id="GMuKRCzSjl4kFnSS3_tR-146" value="y&lt;sub&gt;&lt;font style=&quot;font-size: 28px&quot;&gt;P-1&lt;/font&gt;&lt;/sub&gt;" style="ellipse;whiteSpace=wrap;html=1;aspect=fixed;strokeColor=#000000;strokeWidth=3;fillColor=#dae8fc;fontFamily=Times New Roman;fontSize=35;" parent="1" vertex="1">
          <mxGeometry x="1320" y="2420" width="80" height="80" as="geometry" />
        </mxCell>
        <mxCell id="GMuKRCzSjl4kFnSS3_tR-199" style="edgeStyle=orthogonalEdgeStyle;rounded=0;orthogonalLoop=1;jettySize=auto;html=1;exitX=0.5;exitY=1;exitDx=0;exitDy=0;fontFamily=Times New Roman;fontSize=35;" parent="1" source="GMuKRCzSjl4kFnSS3_tR-169" target="GMuKRCzSjl4kFnSS3_tR-136" edge="1">
          <mxGeometry relative="1" as="geometry" />
        </mxCell>
        <mxCell id="GMuKRCzSjl4kFnSS3_tR-169" value="g&lt;sub&gt;0&lt;/sub&gt;" style="ellipse;whiteSpace=wrap;html=1;aspect=fixed;strokeColor=#000000;strokeWidth=3;fillColor=#e1d5e7;fontFamily=Times New Roman;fontSize=35;" parent="1" vertex="1">
          <mxGeometry x="780" y="1890" width="80" height="80" as="geometry" />
        </mxCell>
        <mxCell id="GMuKRCzSjl4kFnSS3_tR-200" style="edgeStyle=orthogonalEdgeStyle;rounded=0;orthogonalLoop=1;jettySize=auto;html=1;exitX=0.5;exitY=1;exitDx=0;exitDy=0;entryX=0.5;entryY=0;entryDx=0;entryDy=0;fontFamily=Times New Roman;fontSize=35;" parent="1" source="GMuKRCzSjl4kFnSS3_tR-170" target="GMuKRCzSjl4kFnSS3_tR-137" edge="1">
          <mxGeometry relative="1" as="geometry" />
        </mxCell>
        <mxCell id="GMuKRCzSjl4kFnSS3_tR-170" value="g&lt;sub&gt;1&lt;/sub&gt;" style="ellipse;whiteSpace=wrap;html=1;aspect=fixed;strokeColor=#000000;strokeWidth=3;fillColor=#e1d5e7;fontFamily=Times New Roman;fontSize=35;" parent="1" vertex="1">
          <mxGeometry x="930" y="1890" width="80" height="80" as="geometry" />
        </mxCell>
        <mxCell id="GMuKRCzSjl4kFnSS3_tR-201" style="edgeStyle=orthogonalEdgeStyle;rounded=0;orthogonalLoop=1;jettySize=auto;html=1;exitX=0.5;exitY=1;exitDx=0;exitDy=0;entryX=0.5;entryY=0;entryDx=0;entryDy=0;fontFamily=Times New Roman;fontSize=35;" parent="1" source="GMuKRCzSjl4kFnSS3_tR-171" target="GMuKRCzSjl4kFnSS3_tR-138" edge="1">
          <mxGeometry relative="1" as="geometry" />
        </mxCell>
        <mxCell id="GMuKRCzSjl4kFnSS3_tR-171" value="g&lt;sub&gt;&lt;font style=&quot;font-size: 28px&quot;&gt;K-1&lt;/font&gt;&lt;/sub&gt;" style="ellipse;whiteSpace=wrap;html=1;aspect=fixed;strokeColor=#000000;strokeWidth=3;fillColor=#e1d5e7;fontFamily=Times New Roman;fontSize=35;" parent="1" vertex="1">
          <mxGeometry x="1260" y="1890" width="80" height="80" as="geometry" />
        </mxCell>
        <mxCell id="GMuKRCzSjl4kFnSS3_tR-184" value="a&lt;sub&gt;0&lt;/sub&gt;" style="ellipse;whiteSpace=wrap;html=1;aspect=fixed;strokeColor=#000000;strokeWidth=3;fillColor=#ffe6cc;fontFamily=Times New Roman;fontSize=35;" parent="1" vertex="1">
          <mxGeometry x="700" y="1810" width="80" height="80" as="geometry" />
        </mxCell>
        <mxCell id="GMuKRCzSjl4kFnSS3_tR-185" value="a&lt;sub&gt;1&lt;/sub&gt;" style="ellipse;whiteSpace=wrap;html=1;aspect=fixed;strokeColor=#000000;strokeWidth=3;fillColor=#ffe6cc;fontFamily=Times New Roman;fontSize=35;" parent="1" vertex="1">
          <mxGeometry x="850" y="1810" width="80" height="80" as="geometry" />
        </mxCell>
        <mxCell id="GMuKRCzSjl4kFnSS3_tR-186" value="a&lt;sub&gt;&lt;font style=&quot;font-size: 28px&quot;&gt;K-1&lt;/font&gt;&lt;/sub&gt;" style="ellipse;whiteSpace=wrap;html=1;aspect=fixed;strokeColor=#000000;strokeWidth=3;fillColor=#ffe6cc;fontFamily=Times New Roman;fontSize=35;" parent="1" vertex="1">
          <mxGeometry x="1180" y="1810" width="80" height="80" as="geometry" />
        </mxCell>
        <mxCell id="GMuKRCzSjl4kFnSS3_tR-187" value="a&lt;sub&gt;K&lt;/sub&gt;" style="ellipse;whiteSpace=wrap;html=1;aspect=fixed;strokeColor=#000000;strokeWidth=3;fillColor=#ffe6cc;fontFamily=Times New Roman;fontSize=35;" parent="1" vertex="1">
          <mxGeometry x="700" y="2000" width="80" height="80" as="geometry" />
        </mxCell>
        <mxCell id="GMuKRCzSjl4kFnSS3_tR-192" value="" style="endArrow=classic;html=1;fontFamily=Times New Roman;fontSize=35;entryX=0;entryY=0;entryDx=0;entryDy=0;exitX=0.75;exitY=0.929;exitDx=0;exitDy=0;exitPerimeter=0;" parent="1" source="GMuKRCzSjl4kFnSS3_tR-184" target="GMuKRCzSjl4kFnSS3_tR-169" edge="1">
          <mxGeometry width="50" height="50" relative="1" as="geometry">
            <mxPoint x="748" y="1648" as="sourcePoint" />
            <mxPoint x="801.7157287525379" y="1741.7157287525379" as="targetPoint" />
          </mxGeometry>
        </mxCell>
        <mxCell id="GMuKRCzSjl4kFnSS3_tR-194" value="" style="endArrow=classic;html=1;fontFamily=Times New Roman;fontSize=35;entryX=0;entryY=0;entryDx=0;entryDy=0;" parent="1" source="GMuKRCzSjl4kFnSS3_tR-185" target="GMuKRCzSjl4kFnSS3_tR-170" edge="1">
          <mxGeometry width="50" height="50" relative="1" as="geometry">
            <mxPoint x="778.2842712474621" y="1888.2842712474621" as="sourcePoint" />
            <mxPoint x="801.7157287525379" y="1931.7157287525379" as="targetPoint" />
          </mxGeometry>
        </mxCell>
        <mxCell id="GMuKRCzSjl4kFnSS3_tR-195" value="" style="endArrow=classic;html=1;fontFamily=Times New Roman;fontSize=35;entryX=0;entryY=0;entryDx=0;entryDy=0;" parent="1" source="GMuKRCzSjl4kFnSS3_tR-186" target="GMuKRCzSjl4kFnSS3_tR-171" edge="1">
          <mxGeometry width="50" height="50" relative="1" as="geometry">
            <mxPoint x="923.3920630150328" y="1892.4470551498844" as="sourcePoint" />
            <mxPoint x="951.7157287525379" y="1931.7157287525379" as="targetPoint" />
          </mxGeometry>
        </mxCell>
        <mxCell id="GMuKRCzSjl4kFnSS3_tR-196" value="" style="endArrow=classic;html=1;fontFamily=Times New Roman;fontSize=35;entryX=0;entryY=1;entryDx=0;entryDy=0;" parent="1" source="GMuKRCzSjl4kFnSS3_tR-187" target="GMuKRCzSjl4kFnSS3_tR-169" edge="1">
          <mxGeometry width="50" height="50" relative="1" as="geometry">
            <mxPoint x="770" y="1894.3200000000002" as="sourcePoint" />
            <mxPoint x="801.7157287525379" y="1931.7157287525379" as="targetPoint" />
          </mxGeometry>
        </mxCell>
        <mxCell id="GMuKRCzSjl4kFnSS3_tR-197" value="" style="endArrow=classic;html=1;fontFamily=Times New Roman;fontSize=35;" parent="1" target="GMuKRCzSjl4kFnSS3_tR-171" edge="1">
          <mxGeometry width="50" height="50" relative="1" as="geometry">
            <mxPoint x="1249.998794504423" y="2011.0591807527856" as="sourcePoint" />
            <mxPoint x="1276.0257287525378" y="1980.0042712474617" as="targetPoint" />
          </mxGeometry>
        </mxCell>
        <mxCell id="GMuKRCzSjl4kFnSS3_tR-198" value="" style="endArrow=classic;html=1;fontFamily=Times New Roman;fontSize=35;entryX=0.292;entryY=0.95;entryDx=0;entryDy=0;exitX=1;exitY=0;exitDx=0;exitDy=0;entryPerimeter=0;" parent="1" source="GMuKRCzSjl4kFnSS3_tR-188" target="GMuKRCzSjl4kFnSS3_tR-170" edge="1">
          <mxGeometry width="50" height="50" relative="1" as="geometry">
            <mxPoint x="919.9987945044229" y="1999.9991807527856" as="sourcePoint" />
            <mxPoint x="946.0257287525378" y="1968.9442712474618" as="targetPoint" />
          </mxGeometry>
        </mxCell>
        <mxCell id="GMuKRCzSjl4kFnSS3_tR-202" value="" style="endArrow=classic;html=1;fontFamily=Times New Roman;fontSize=35;entryX=0;entryY=0;entryDx=0;entryDy=0;exitX=1;exitY=1;exitDx=0;exitDy=0;" parent="1" source="GMuKRCzSjl4kFnSS3_tR-169" target="GMuKRCzSjl4kFnSS3_tR-137" edge="1">
          <mxGeometry width="50" height="50" relative="1" as="geometry">
            <mxPoint x="923.3920630150328" y="1892.4470551498844" as="sourcePoint" />
            <mxPoint x="951.7157287525379" y="1931.7157287525379" as="targetPoint" />
          </mxGeometry>
        </mxCell>
        <mxCell id="GMuKRCzSjl4kFnSS3_tR-203" value="" style="endArrow=classic;html=1;fontFamily=Times New Roman;fontSize=35;entryX=0;entryY=0.5;entryDx=0;entryDy=0;" parent="1" source="GMuKRCzSjl4kFnSS3_tR-169" target="GMuKRCzSjl4kFnSS3_tR-138" edge="1">
          <mxGeometry width="50" height="50" relative="1" as="geometry">
            <mxPoint x="858.2842712474621" y="1988.2842712474621" as="sourcePoint" />
            <mxPoint x="951.7157287525379" y="2111.715728752538" as="targetPoint" />
          </mxGeometry>
        </mxCell>
        <mxCell id="GMuKRCzSjl4kFnSS3_tR-209" value="" style="endArrow=classic;html=1;fontFamily=Times New Roman;fontSize=35;entryX=1;entryY=0;entryDx=0;entryDy=0;exitX=0.115;exitY=0.794;exitDx=0;exitDy=0;exitPerimeter=0;" parent="1" source="GMuKRCzSjl4kFnSS3_tR-170" target="GMuKRCzSjl4kFnSS3_tR-136" edge="1">
          <mxGeometry width="50" height="50" relative="1" as="geometry">
            <mxPoint x="1008.2842712474621" y="1988.2842712474621" as="sourcePoint" />
            <mxPoint x="1281.7157287525379" y="2111.715728752538" as="targetPoint" />
          </mxGeometry>
        </mxCell>
        <mxCell id="GMuKRCzSjl4kFnSS3_tR-211" value="" style="curved=1;endArrow=classic;html=1;fontFamily=Times New Roman;fontSize=35;entryX=0.083;entryY=0.252;entryDx=0;entryDy=0;entryPerimeter=0;exitX=1;exitY=1;exitDx=0;exitDy=0;" parent="1" source="GMuKRCzSjl4kFnSS3_tR-170" target="GMuKRCzSjl4kFnSS3_tR-138" edge="1">
          <mxGeometry width="50" height="50" relative="1" as="geometry">
            <mxPoint x="1030" y="1990" as="sourcePoint" />
            <mxPoint x="1080" y="1940" as="targetPoint" />
            <Array as="points">
              <mxPoint x="1140" y="2070" />
            </Array>
          </mxGeometry>
        </mxCell>
        <mxCell id="GMuKRCzSjl4kFnSS3_tR-212" value="" style="endArrow=classic;html=1;fontFamily=Times New Roman;fontSize=35;entryX=1;entryY=0;entryDx=0;entryDy=0;exitX=0.042;exitY=0.679;exitDx=0;exitDy=0;exitPerimeter=0;" parent="1" source="GMuKRCzSjl4kFnSS3_tR-171" edge="1">
          <mxGeometry width="50" height="50" relative="1" as="geometry">
            <mxPoint x="949.2000000000003" y="1983.52" as="sourcePoint" />
            <mxPoint x="858.2842712474621" y="2111.7157287525374" as="targetPoint" />
          </mxGeometry>
        </mxCell>
        <mxCell id="GMuKRCzSjl4kFnSS3_tR-213" value="" style="endArrow=classic;html=1;fontFamily=Times New Roman;fontSize=35;entryX=0.5;entryY=0;entryDx=0;entryDy=0;exitX=0;exitY=1;exitDx=0;exitDy=0;" parent="1" source="GMuKRCzSjl4kFnSS3_tR-136" target="GMuKRCzSjl4kFnSS3_tR-139" edge="1">
          <mxGeometry width="50" height="50" relative="1" as="geometry">
            <mxPoint x="710.9199999999998" y="2139.9999999999995" as="sourcePoint" />
            <mxPoint x="620.0042712474617" y="2268.195728752539" as="targetPoint" />
          </mxGeometry>
        </mxCell>
        <mxCell id="GMuKRCzSjl4kFnSS3_tR-214" value="" style="endArrow=classic;html=1;fontFamily=Times New Roman;fontSize=35;entryX=0.763;entryY=0.066;entryDx=0;entryDy=0;exitX=0;exitY=1;exitDx=0;exitDy=0;entryPerimeter=0;" parent="1" source="GMuKRCzSjl4kFnSS3_tR-137" target="GMuKRCzSjl4kFnSS3_tR-139" edge="1">
          <mxGeometry width="50" height="50" relative="1" as="geometry">
            <mxPoint x="801.7157287525383" y="2168.284271247462" as="sourcePoint" />
            <mxPoint x="730" y="2270" as="targetPoint" />
          </mxGeometry>
        </mxCell>
        <mxCell id="GMuKRCzSjl4kFnSS3_tR-215" value="" style="endArrow=classic;html=1;fontFamily=Times New Roman;fontSize=35;entryX=0.962;entryY=0.221;entryDx=0;entryDy=0;exitX=0;exitY=1;exitDx=0;exitDy=0;entryPerimeter=0;" parent="1" source="GMuKRCzSjl4kFnSS3_tR-138" target="GMuKRCzSjl4kFnSS3_tR-139" edge="1">
          <mxGeometry width="50" height="50" relative="1" as="geometry">
            <mxPoint x="811.7157287525383" y="2178.284271247462" as="sourcePoint" />
            <mxPoint x="740" y="2280" as="targetPoint" />
          </mxGeometry>
        </mxCell>
        <mxCell id="GMuKRCzSjl4kFnSS3_tR-216" value="" style="endArrow=classic;html=1;fontFamily=Times New Roman;fontSize=35;entryX=0;entryY=0;entryDx=0;entryDy=0;exitX=0.5;exitY=1;exitDx=0;exitDy=0;" parent="1" source="GMuKRCzSjl4kFnSS3_tR-136" target="GMuKRCzSjl4kFnSS3_tR-140" edge="1">
          <mxGeometry width="50" height="50" relative="1" as="geometry">
            <mxPoint x="801.7157287525379" y="2168.284271247462" as="sourcePoint" />
            <mxPoint x="730" y="2270" as="targetPoint" />
          </mxGeometry>
        </mxCell>
        <mxCell id="GMuKRCzSjl4kFnSS3_tR-217" value="" style="endArrow=classic;html=1;fontFamily=Times New Roman;fontSize=35;entryX=0.5;entryY=0;entryDx=0;entryDy=0;exitX=0.282;exitY=0.97;exitDx=0;exitDy=0;exitPerimeter=0;" parent="1" source="GMuKRCzSjl4kFnSS3_tR-137" target="GMuKRCzSjl4kFnSS3_tR-140" edge="1">
          <mxGeometry width="50" height="50" relative="1" as="geometry">
            <mxPoint x="950" y="2170" as="sourcePoint" />
            <mxPoint x="861.7157287525201" y="2281.7157287525206" as="targetPoint" />
          </mxGeometry>
        </mxCell>
        <mxCell id="GMuKRCzSjl4kFnSS3_tR-218" value="" style="endArrow=classic;html=1;fontFamily=Times New Roman;fontSize=35;entryX=0.363;entryY=0.025;entryDx=0;entryDy=0;exitX=0.625;exitY=1.025;exitDx=0;exitDy=0;exitPerimeter=0;entryPerimeter=0;" parent="1" source="GMuKRCzSjl4kFnSS3_tR-137" target="GMuKRCzSjl4kFnSS3_tR-141" edge="1">
          <mxGeometry width="50" height="50" relative="1" as="geometry">
            <mxPoint x="962.56" y="2177.6" as="sourcePoint" />
            <mxPoint x="890" y="2270" as="targetPoint" />
          </mxGeometry>
        </mxCell>
        <mxCell id="GMuKRCzSjl4kFnSS3_tR-219" value="" style="endArrow=classic;html=1;fontFamily=Times New Roman;fontSize=35;entryX=1;entryY=0;entryDx=0;entryDy=0;exitX=0;exitY=1;exitDx=0;exitDy=0;" parent="1" target="GMuKRCzSjl4kFnSS3_tR-140" edge="1">
          <mxGeometry width="50" height="50" relative="1" as="geometry">
            <mxPoint x="1281.7157287525379" y="2168.284271247462" as="sourcePoint" />
            <mxPoint x="766.96" y="2287.68" as="targetPoint" />
          </mxGeometry>
        </mxCell>
        <mxCell id="GMuKRCzSjl4kFnSS3_tR-220" value="" style="endArrow=classic;html=1;fontFamily=Times New Roman;fontSize=35;entryX=0.963;entryY=0.188;entryDx=0;entryDy=0;exitX=0.5;exitY=1;exitDx=0;exitDy=0;entryPerimeter=0;" parent="1" source="GMuKRCzSjl4kFnSS3_tR-138" target="GMuKRCzSjl4kFnSS3_tR-141" edge="1">
          <mxGeometry width="50" height="50" relative="1" as="geometry">
            <mxPoint x="980" y="2180" as="sourcePoint" />
            <mxPoint x="1021.7157287525379" y="2281.715728752538" as="targetPoint" />
          </mxGeometry>
        </mxCell>
        <mxCell id="GMuKRCzSjl4kFnSS3_tR-221" value="" style="endArrow=classic;html=1;fontFamily=Times New Roman;fontSize=35;entryX=0.063;entryY=0.225;entryDx=0;entryDy=0;exitX=1;exitY=1;exitDx=0;exitDy=0;entryPerimeter=0;" parent="1" source="GMuKRCzSjl4kFnSS3_tR-136" target="GMuKRCzSjl4kFnSS3_tR-141" edge="1">
          <mxGeometry width="50" height="50" relative="1" as="geometry">
            <mxPoint x="830" y="2180" as="sourcePoint" />
            <mxPoint x="861.7157287525379" y="2281.715728752538" as="targetPoint" />
          </mxGeometry>
        </mxCell>
        <mxCell id="GMuKRCzSjl4kFnSS3_tR-222" value="" style="endArrow=classic;html=1;fontFamily=Times New Roman;fontSize=35;entryX=0;entryY=0;entryDx=0;entryDy=0;exitX=0.63;exitY=1.013;exitDx=0;exitDy=0;exitPerimeter=0;" parent="1" source="GMuKRCzSjl4kFnSS3_tR-138" edge="1">
          <mxGeometry width="50" height="50" relative="1" as="geometry">
            <mxPoint x="1320" y="2158.28" as="sourcePoint" />
            <mxPoint x="1351.7157287525383" y="2259.995728752538" as="targetPoint" />
          </mxGeometry>
        </mxCell>
        <mxCell id="GMuKRCzSjl4kFnSS3_tR-223" value="" style="endArrow=classic;html=1;fontFamily=Times New Roman;fontSize=35;entryX=0;entryY=0.25;entryDx=0;entryDy=0;entryPerimeter=0;" parent="1" source="GMuKRCzSjl4kFnSS3_tR-136" target="GMuKRCzSjl4kFnSS3_tR-142" edge="1">
          <mxGeometry width="50" height="50" relative="1" as="geometry">
            <mxPoint x="858.2842712474617" y="2168.284271247462" as="sourcePoint" />
            <mxPoint x="1015.0399999999995" y="2287.9999999999995" as="targetPoint" />
          </mxGeometry>
        </mxCell>
        <mxCell id="GMuKRCzSjl4kFnSS3_tR-224" value="" style="endArrow=classic;html=1;fontFamily=Times New Roman;fontSize=35;entryX=0;entryY=0;entryDx=0;entryDy=0;exitX=1;exitY=1;exitDx=0;exitDy=0;" parent="1" source="GMuKRCzSjl4kFnSS3_tR-137" target="GMuKRCzSjl4kFnSS3_tR-142" edge="1">
          <mxGeometry width="50" height="50" relative="1" as="geometry">
            <mxPoint x="868.3130514088411" y="2151.493915422652" as="sourcePoint" />
            <mxPoint x="1330" y="2290" as="targetPoint" />
          </mxGeometry>
        </mxCell>
        <mxCell id="GMuKRCzSjl4kFnSS3_tR-229" value="" style="endArrow=classic;html=1;fontFamily=Times New Roman;fontSize=35;entryX=0;entryY=0;entryDx=0;entryDy=0;exitX=0.716;exitY=0.97;exitDx=0;exitDy=0;exitPerimeter=0;" parent="1" source="GMuKRCzSjl4kFnSS3_tR-139" target="GMuKRCzSjl4kFnSS3_tR-144" edge="1">
          <mxGeometry width="50" height="50" relative="1" as="geometry">
            <mxPoint x="801.7157287525383" y="2168.284271247462" as="sourcePoint" />
            <mxPoint x="730" y="2270" as="targetPoint" />
          </mxGeometry>
        </mxCell>
        <mxCell id="GMuKRCzSjl4kFnSS3_tR-230" value="" style="endArrow=classic;html=1;fontFamily=Times New Roman;fontSize=35;entryX=0;entryY=0;entryDx=0;entryDy=0;exitX=1;exitY=1;exitDx=0;exitDy=0;" parent="1" edge="1">
          <mxGeometry width="50" height="50" relative="1" as="geometry">
            <mxPoint x="906.5642712474616" y="2330.004271247462" as="sourcePoint" />
            <mxPoint x="1009.9957287525383" y="2433.4357287525377" as="targetPoint" />
          </mxGeometry>
        </mxCell>
        <mxCell id="GMuKRCzSjl4kFnSS3_tR-231" value="" style="endArrow=classic;html=1;fontFamily=Times New Roman;fontSize=35;entryX=0;entryY=0;entryDx=0;entryDy=0;exitX=1;exitY=1;exitDx=0;exitDy=0;" parent="1" source="GMuKRCzSjl4kFnSS3_tR-141" target="GMuKRCzSjl4kFnSS3_tR-146" edge="1">
          <mxGeometry width="50" height="50" relative="1" as="geometry">
            <mxPoint x="916.5642712474614" y="2340.004271247462" as="sourcePoint" />
            <mxPoint x="1019.9957287525385" y="2443.4357287525377" as="targetPoint" />
          </mxGeometry>
        </mxCell>
        <mxCell id="GMuKRCzSjl4kFnSS3_tR-232" value="" style="endArrow=classic;html=1;fontFamily=Times New Roman;fontSize=35;entryX=1;entryY=0;entryDx=0;entryDy=0;exitX=0;exitY=1;exitDx=0;exitDy=0;" parent="1" source="GMuKRCzSjl4kFnSS3_tR-142" target="GMuKRCzSjl4kFnSS3_tR-145" edge="1">
          <mxGeometry width="50" height="50" relative="1" as="geometry">
            <mxPoint x="1310" y="2440" as="sourcePoint" />
            <mxPoint x="1360" y="2390" as="targetPoint" />
          </mxGeometry>
        </mxCell>
        <mxCell id="GMuKRCzSjl4kFnSS3_tR-233" value="" style="endArrow=classic;html=1;fontFamily=Times New Roman;fontSize=35;entryX=0.955;entryY=0.292;entryDx=0;entryDy=0;exitX=0.029;exitY=0.733;exitDx=0;exitDy=0;exitPerimeter=0;entryPerimeter=0;" parent="1" source="GMuKRCzSjl4kFnSS3_tR-142" target="GMuKRCzSjl4kFnSS3_tR-144" edge="1">
          <mxGeometry width="50" height="50" relative="1" as="geometry">
            <mxPoint x="1341.7157287525379" y="2338.284271247462" as="sourcePoint" />
            <mxPoint x="1078.2842712474799" y="2441.71572875252" as="targetPoint" />
          </mxGeometry>
        </mxCell>
        <mxCell id="GMuKRCzSjl4kFnSS3_tR-234" value="" style="endArrow=classic;html=1;fontFamily=Times New Roman;fontSize=35;entryX=1;entryY=0;entryDx=0;entryDy=0;exitX=0;exitY=0.613;exitDx=0;exitDy=0;exitPerimeter=0;" parent="1" source="GMuKRCzSjl4kFnSS3_tR-142" target="GMuKRCzSjl4kFnSS3_tR-143" edge="1">
          <mxGeometry width="50" height="50" relative="1" as="geometry">
            <mxPoint x="1316" y="2309" as="sourcePoint" />
            <mxPoint x="918.2842712474799" y="2441.71572875252" as="targetPoint" />
          </mxGeometry>
        </mxCell>
        <mxCell id="GMuKRCzSjl4kFnSS3_tR-235" value="" style="endArrow=classic;html=1;fontFamily=Times New Roman;fontSize=35;entryX=0.709;entryY=0.02;entryDx=0;entryDy=0;exitX=0;exitY=1;exitDx=0;exitDy=0;entryPerimeter=0;" parent="1" source="GMuKRCzSjl4kFnSS3_tR-140" target="GMuKRCzSjl4kFnSS3_tR-143" edge="1">
          <mxGeometry width="50" height="50" relative="1" as="geometry">
            <mxPoint x="1341.7157287525379" y="2338.284271247462" as="sourcePoint" />
            <mxPoint x="1078.284271247462" y="2441.715728752538" as="targetPoint" />
          </mxGeometry>
        </mxCell>
        <mxCell id="GMuKRCzSjl4kFnSS3_tR-236" value="" style="endArrow=classic;html=1;fontFamily=Times New Roman;fontSize=35;exitX=1;exitY=1;exitDx=0;exitDy=0;" parent="1" source="GMuKRCzSjl4kFnSS3_tR-139" target="GMuKRCzSjl4kFnSS3_tR-145" edge="1">
          <mxGeometry width="50" height="50" relative="1" as="geometry">
            <mxPoint x="758.2842712474619" y="2338.284271247462" as="sourcePoint" />
            <mxPoint x="861.7157287525381" y="2441.715728752538" as="targetPoint" />
          </mxGeometry>
        </mxCell>
        <mxCell id="GMuKRCzSjl4kFnSS3_tR-237" value="" style="endArrow=classic;html=1;fontFamily=Times New Roman;fontSize=35;exitX=0.959;exitY=0.748;exitDx=0;exitDy=0;exitPerimeter=0;" parent="1" source="GMuKRCzSjl4kFnSS3_tR-139" target="GMuKRCzSjl4kFnSS3_tR-146" edge="1">
          <mxGeometry width="50" height="50" relative="1" as="geometry">
            <mxPoint x="765.7914790530542" y="2327.859732002329" as="sourcePoint" />
            <mxPoint x="1014.2229123600032" y="2452.111456180002" as="targetPoint" />
          </mxGeometry>
        </mxCell>
        <mxCell id="GMuKRCzSjl4kFnSS3_tR-238" value="" style="endArrow=classic;html=1;fontFamily=Times New Roman;fontSize=35;exitX=0.959;exitY=0.755;exitDx=0;exitDy=0;exitPerimeter=0;entryX=0.056;entryY=0.278;entryDx=0;entryDy=0;entryPerimeter=0;" parent="1" source="GMuKRCzSjl4kFnSS3_tR-140" target="GMuKRCzSjl4kFnSS3_tR-146" edge="1">
          <mxGeometry width="50" height="50" relative="1" as="geometry">
            <mxPoint x="766.72" y="2329.84" as="sourcePoint" />
            <mxPoint x="1322" y="2439" as="targetPoint" />
          </mxGeometry>
        </mxCell>
        <mxCell id="GMuKRCzSjl4kFnSS3_tR-239" value="" style="endArrow=classic;html=1;fontFamily=Times New Roman;fontSize=35;exitX=0;exitY=1;exitDx=0;exitDy=0;" parent="1" source="GMuKRCzSjl4kFnSS3_tR-141" target="GMuKRCzSjl4kFnSS3_tR-144" edge="1">
          <mxGeometry width="50" height="50" relative="1" as="geometry">
            <mxPoint x="1332.3200000000002" y="2328.64" as="sourcePoint" />
            <mxPoint x="970" y="2430" as="targetPoint" />
          </mxGeometry>
        </mxCell>
        <mxCell id="GMuKRCzSjl4kFnSS3_tR-240" value="x&lt;sub&gt;&lt;font style=&quot;font-size: 28px&quot;&gt;P-1&lt;/font&gt;&lt;/sub&gt;" style="ellipse;whiteSpace=wrap;html=1;aspect=fixed;strokeColor=#000000;strokeWidth=3;fillColor=#dae8fc;fontFamily=Times New Roman;fontSize=35;" parent="1" vertex="1">
          <mxGeometry x="1320" y="1440" width="80" height="80" as="geometry" />
        </mxCell>
        <mxCell id="GMuKRCzSjl4kFnSS3_tR-241" value="h&lt;sub&gt;&lt;font style=&quot;font-size: 23px&quot;&gt;K-1&lt;/font&gt;&lt;/sub&gt;&lt;sup&gt;1&lt;/sup&gt;" style="ellipse;whiteSpace=wrap;html=1;aspect=fixed;strokeColor=#000000;strokeWidth=3;fillColor=#dae8fc;fontFamily=Times New Roman;fontSize=35;" parent="1" vertex="1">
          <mxGeometry x="1260" y="1720" width="80" height="80" as="geometry" />
        </mxCell>
        <mxCell id="GMuKRCzSjl4kFnSS3_tR-244" value="" style="ellipse;whiteSpace=wrap;html=1;aspect=fixed;strokeColor=#000000;strokeWidth=3;fillColor=#000000;fontFamily=Times New Roman;fontSize=35;" parent="1" vertex="1">
          <mxGeometry x="1160" y="996" width="4" height="4" as="geometry" />
        </mxCell>
        <mxCell id="GMuKRCzSjl4kFnSS3_tR-248" value="" style="ellipse;whiteSpace=wrap;html=1;aspect=fixed;strokeColor=#000000;strokeWidth=3;fillColor=#000000;fontFamily=Times New Roman;fontSize=35;" parent="1" vertex="1">
          <mxGeometry x="1190" y="996" width="4" height="4" as="geometry" />
        </mxCell>
        <mxCell id="GMuKRCzSjl4kFnSS3_tR-249" value="" style="ellipse;whiteSpace=wrap;html=1;aspect=fixed;strokeColor=#000000;strokeWidth=3;fillColor=#000000;fontFamily=Times New Roman;fontSize=35;" parent="1" vertex="1">
          <mxGeometry x="1220" y="996" width="4" height="4" as="geometry" />
        </mxCell>
        <mxCell id="GMuKRCzSjl4kFnSS3_tR-254" value="" style="group;fontSize=35;" parent="1" vertex="1" connectable="0" treatAsSingle="0">
          <mxGeometry x="1164" y="1410" width="64" height="4" as="geometry" />
        </mxCell>
        <mxCell id="GMuKRCzSjl4kFnSS3_tR-251" value="" style="ellipse;whiteSpace=wrap;html=1;aspect=fixed;strokeColor=#000000;strokeWidth=3;fillColor=#000000;fontFamily=Times New Roman;fontSize=35;" parent="GMuKRCzSjl4kFnSS3_tR-254" vertex="1">
          <mxGeometry width="4" height="4" as="geometry" />
        </mxCell>
        <mxCell id="GMuKRCzSjl4kFnSS3_tR-252" value="" style="ellipse;whiteSpace=wrap;html=1;aspect=fixed;strokeColor=#000000;strokeWidth=3;fillColor=#000000;fontFamily=Times New Roman;fontSize=35;" parent="GMuKRCzSjl4kFnSS3_tR-254" vertex="1">
          <mxGeometry x="30" width="4" height="4" as="geometry" />
        </mxCell>
        <mxCell id="GMuKRCzSjl4kFnSS3_tR-253" value="" style="ellipse;whiteSpace=wrap;html=1;aspect=fixed;strokeColor=#000000;strokeWidth=3;fillColor=#000000;fontFamily=Times New Roman;fontSize=35;" parent="GMuKRCzSjl4kFnSS3_tR-254" vertex="1">
          <mxGeometry x="60" width="4" height="4" as="geometry" />
        </mxCell>
        <mxCell id="GMuKRCzSjl4kFnSS3_tR-264" value="" style="group;rotation=90;fontSize=35;" parent="1" vertex="1" connectable="0" treatAsSingle="0">
          <mxGeometry x="508" y="1400" width="64" height="4" as="geometry" />
        </mxCell>
        <mxCell id="GMuKRCzSjl4kFnSS3_tR-265" value="" style="ellipse;whiteSpace=wrap;html=1;aspect=fixed;strokeColor=#000000;strokeWidth=3;fillColor=#000000;fontFamily=Times New Roman;fontSize=35;rotation=90;" parent="GMuKRCzSjl4kFnSS3_tR-264" vertex="1">
          <mxGeometry x="30" y="-30" width="4" height="4" as="geometry" />
        </mxCell>
        <mxCell id="GMuKRCzSjl4kFnSS3_tR-266" value="" style="ellipse;whiteSpace=wrap;html=1;aspect=fixed;strokeColor=#000000;strokeWidth=3;fillColor=#000000;fontFamily=Times New Roman;fontSize=35;rotation=90;" parent="GMuKRCzSjl4kFnSS3_tR-264" vertex="1">
          <mxGeometry x="30" width="4" height="4" as="geometry" />
        </mxCell>
        <mxCell id="GMuKRCzSjl4kFnSS3_tR-267" value="" style="ellipse;whiteSpace=wrap;html=1;aspect=fixed;strokeColor=#000000;strokeWidth=3;fillColor=#000000;fontFamily=Times New Roman;fontSize=35;rotation=90;" parent="GMuKRCzSjl4kFnSS3_tR-264" vertex="1">
          <mxGeometry x="30" y="30" width="4" height="4" as="geometry" />
        </mxCell>
        <mxCell id="GMuKRCzSjl4kFnSS3_tR-269" value="" style="group;fontSize=35;" parent="1" vertex="1" connectable="0" treatAsSingle="0">
          <mxGeometry x="1164" y="1590" width="64" height="4" as="geometry" />
        </mxCell>
        <mxCell id="GMuKRCzSjl4kFnSS3_tR-270" value="" style="ellipse;whiteSpace=wrap;html=1;aspect=fixed;strokeColor=#000000;strokeWidth=3;fillColor=#000000;fontFamily=Times New Roman;fontSize=35;" parent="GMuKRCzSjl4kFnSS3_tR-269" vertex="1">
          <mxGeometry width="4" height="4" as="geometry" />
        </mxCell>
        <mxCell id="GMuKRCzSjl4kFnSS3_tR-271" value="" style="ellipse;whiteSpace=wrap;html=1;aspect=fixed;strokeColor=#000000;strokeWidth=3;fillColor=#000000;fontFamily=Times New Roman;fontSize=35;" parent="GMuKRCzSjl4kFnSS3_tR-269" vertex="1">
          <mxGeometry x="30" width="4" height="4" as="geometry" />
        </mxCell>
        <mxCell id="GMuKRCzSjl4kFnSS3_tR-272" value="" style="ellipse;whiteSpace=wrap;html=1;aspect=fixed;strokeColor=#000000;strokeWidth=3;fillColor=#000000;fontFamily=Times New Roman;fontSize=35;" parent="GMuKRCzSjl4kFnSS3_tR-269" vertex="1">
          <mxGeometry x="60" width="4" height="4" as="geometry" />
        </mxCell>
        <mxCell id="GMuKRCzSjl4kFnSS3_tR-273" value="" style="group;fontSize=35;" parent="1" vertex="1" connectable="0" treatAsSingle="0">
          <mxGeometry x="1100" y="1760" width="64" height="4" as="geometry" />
        </mxCell>
        <mxCell id="GMuKRCzSjl4kFnSS3_tR-274" value="" style="ellipse;whiteSpace=wrap;html=1;aspect=fixed;strokeColor=#000000;strokeWidth=3;fillColor=#000000;fontFamily=Times New Roman;fontSize=35;" parent="GMuKRCzSjl4kFnSS3_tR-273" vertex="1">
          <mxGeometry width="4" height="4" as="geometry" />
        </mxCell>
        <mxCell id="GMuKRCzSjl4kFnSS3_tR-275" value="" style="ellipse;whiteSpace=wrap;html=1;aspect=fixed;strokeColor=#000000;strokeWidth=3;fillColor=#000000;fontFamily=Times New Roman;fontSize=35;" parent="GMuKRCzSjl4kFnSS3_tR-273" vertex="1">
          <mxGeometry x="30" width="4" height="4" as="geometry" />
        </mxCell>
        <mxCell id="GMuKRCzSjl4kFnSS3_tR-276" value="" style="ellipse;whiteSpace=wrap;html=1;aspect=fixed;strokeColor=#000000;strokeWidth=3;fillColor=#000000;fontFamily=Times New Roman;fontSize=35;" parent="GMuKRCzSjl4kFnSS3_tR-273" vertex="1">
          <mxGeometry x="60" width="4" height="4" as="geometry" />
        </mxCell>
        <mxCell id="GMuKRCzSjl4kFnSS3_tR-281" value="" style="group;fontSize=35;" parent="1" vertex="1" connectable="0" treatAsSingle="0">
          <mxGeometry x="1050" y="1850" width="64" height="4" as="geometry" />
        </mxCell>
        <mxCell id="GMuKRCzSjl4kFnSS3_tR-282" value="" style="ellipse;whiteSpace=wrap;html=1;aspect=fixed;strokeColor=#000000;strokeWidth=3;fillColor=#000000;fontFamily=Times New Roman;fontSize=35;" parent="GMuKRCzSjl4kFnSS3_tR-281" vertex="1">
          <mxGeometry width="4" height="4" as="geometry" />
        </mxCell>
        <mxCell id="GMuKRCzSjl4kFnSS3_tR-283" value="" style="ellipse;whiteSpace=wrap;html=1;aspect=fixed;strokeColor=#000000;strokeWidth=3;fillColor=#000000;fontFamily=Times New Roman;fontSize=35;" parent="GMuKRCzSjl4kFnSS3_tR-281" vertex="1">
          <mxGeometry x="30" width="4" height="4" as="geometry" />
        </mxCell>
        <mxCell id="GMuKRCzSjl4kFnSS3_tR-284" value="" style="ellipse;whiteSpace=wrap;html=1;aspect=fixed;strokeColor=#000000;strokeWidth=3;fillColor=#000000;fontFamily=Times New Roman;fontSize=35;" parent="GMuKRCzSjl4kFnSS3_tR-281" vertex="1">
          <mxGeometry x="60" width="4" height="4" as="geometry" />
        </mxCell>
        <mxCell id="GMuKRCzSjl4kFnSS3_tR-286" value="" style="group;fontSize=35;" parent="1" vertex="1" connectable="0" treatAsSingle="0">
          <mxGeometry x="1090" y="1950" width="64" height="4" as="geometry" />
        </mxCell>
        <mxCell id="GMuKRCzSjl4kFnSS3_tR-287" value="" style="ellipse;whiteSpace=wrap;html=1;aspect=fixed;strokeColor=#000000;strokeWidth=3;fillColor=#000000;fontFamily=Times New Roman;fontSize=35;" parent="GMuKRCzSjl4kFnSS3_tR-286" vertex="1">
          <mxGeometry width="4" height="4" as="geometry" />
        </mxCell>
        <mxCell id="GMuKRCzSjl4kFnSS3_tR-288" value="" style="ellipse;whiteSpace=wrap;html=1;aspect=fixed;strokeColor=#000000;strokeWidth=3;fillColor=#000000;fontFamily=Times New Roman;fontSize=35;" parent="GMuKRCzSjl4kFnSS3_tR-286" vertex="1">
          <mxGeometry x="30" width="4" height="4" as="geometry" />
        </mxCell>
        <mxCell id="GMuKRCzSjl4kFnSS3_tR-289" value="" style="ellipse;whiteSpace=wrap;html=1;aspect=fixed;strokeColor=#000000;strokeWidth=3;fillColor=#000000;fontFamily=Times New Roman;fontSize=35;" parent="GMuKRCzSjl4kFnSS3_tR-286" vertex="1">
          <mxGeometry x="60" width="4" height="4" as="geometry" />
        </mxCell>
        <mxCell id="GMuKRCzSjl4kFnSS3_tR-290" value="" style="group;fontSize=35;" parent="1" vertex="1" connectable="0" treatAsSingle="0">
          <mxGeometry x="1096" y="2126" width="64" height="4" as="geometry" />
        </mxCell>
        <mxCell id="GMuKRCzSjl4kFnSS3_tR-291" value="" style="ellipse;whiteSpace=wrap;html=1;aspect=fixed;strokeColor=#000000;strokeWidth=3;fillColor=#000000;fontFamily=Times New Roman;fontSize=35;" parent="GMuKRCzSjl4kFnSS3_tR-290" vertex="1">
          <mxGeometry width="4" height="4" as="geometry" />
        </mxCell>
        <mxCell id="GMuKRCzSjl4kFnSS3_tR-292" value="" style="ellipse;whiteSpace=wrap;html=1;aspect=fixed;strokeColor=#000000;strokeWidth=3;fillColor=#000000;fontFamily=Times New Roman;fontSize=35;" parent="GMuKRCzSjl4kFnSS3_tR-290" vertex="1">
          <mxGeometry x="30" width="4" height="4" as="geometry" />
        </mxCell>
        <mxCell id="GMuKRCzSjl4kFnSS3_tR-293" value="" style="ellipse;whiteSpace=wrap;html=1;aspect=fixed;strokeColor=#000000;strokeWidth=3;fillColor=#000000;fontFamily=Times New Roman;fontSize=35;" parent="GMuKRCzSjl4kFnSS3_tR-290" vertex="1">
          <mxGeometry x="60" width="4" height="4" as="geometry" />
        </mxCell>
        <mxCell id="GMuKRCzSjl4kFnSS3_tR-294" value="" style="group;fontSize=35;" parent="1" vertex="1" connectable="0" treatAsSingle="0">
          <mxGeometry x="1030" y="2040" width="64" height="4" as="geometry" />
        </mxCell>
        <mxCell id="GMuKRCzSjl4kFnSS3_tR-295" value="" style="ellipse;whiteSpace=wrap;html=1;aspect=fixed;strokeColor=#000000;strokeWidth=3;fillColor=#000000;fontFamily=Times New Roman;fontSize=35;" parent="GMuKRCzSjl4kFnSS3_tR-294" vertex="1">
          <mxGeometry width="4" height="4" as="geometry" />
        </mxCell>
        <mxCell id="GMuKRCzSjl4kFnSS3_tR-296" value="" style="ellipse;whiteSpace=wrap;html=1;aspect=fixed;strokeColor=#000000;strokeWidth=3;fillColor=#000000;fontFamily=Times New Roman;fontSize=35;" parent="GMuKRCzSjl4kFnSS3_tR-294" vertex="1">
          <mxGeometry x="30" width="4" height="4" as="geometry" />
        </mxCell>
        <mxCell id="GMuKRCzSjl4kFnSS3_tR-297" value="" style="ellipse;whiteSpace=wrap;html=1;aspect=fixed;strokeColor=#000000;strokeWidth=3;fillColor=#000000;fontFamily=Times New Roman;fontSize=35;" parent="GMuKRCzSjl4kFnSS3_tR-294" vertex="1">
          <mxGeometry x="60" width="4" height="4" as="geometry" />
        </mxCell>
        <mxCell id="GMuKRCzSjl4kFnSS3_tR-299" value="" style="group;fontSize=35;" parent="1" vertex="1" connectable="0" treatAsSingle="0">
          <mxGeometry x="1150" y="2290" width="64" height="4" as="geometry" />
        </mxCell>
        <mxCell id="GMuKRCzSjl4kFnSS3_tR-300" value="" style="ellipse;whiteSpace=wrap;html=1;aspect=fixed;strokeColor=#000000;strokeWidth=3;fillColor=#000000;fontFamily=Times New Roman;fontSize=35;" parent="GMuKRCzSjl4kFnSS3_tR-299" vertex="1">
          <mxGeometry width="4" height="4" as="geometry" />
        </mxCell>
        <mxCell id="GMuKRCzSjl4kFnSS3_tR-301" value="" style="ellipse;whiteSpace=wrap;html=1;aspect=fixed;strokeColor=#000000;strokeWidth=3;fillColor=#000000;fontFamily=Times New Roman;fontSize=35;" parent="GMuKRCzSjl4kFnSS3_tR-299" vertex="1">
          <mxGeometry x="30" width="4" height="4" as="geometry" />
        </mxCell>
        <mxCell id="GMuKRCzSjl4kFnSS3_tR-302" value="" style="ellipse;whiteSpace=wrap;html=1;aspect=fixed;strokeColor=#000000;strokeWidth=3;fillColor=#000000;fontFamily=Times New Roman;fontSize=35;" parent="GMuKRCzSjl4kFnSS3_tR-299" vertex="1">
          <mxGeometry x="60" width="4" height="4" as="geometry" />
        </mxCell>
        <mxCell id="GMuKRCzSjl4kFnSS3_tR-303" value="" style="group;fontSize=35;" parent="1" vertex="1" connectable="0" treatAsSingle="0">
          <mxGeometry x="1150" y="2450" width="64" height="4" as="geometry" />
        </mxCell>
        <mxCell id="GMuKRCzSjl4kFnSS3_tR-304" value="" style="ellipse;whiteSpace=wrap;html=1;aspect=fixed;strokeColor=#000000;strokeWidth=3;fillColor=#000000;fontFamily=Times New Roman;fontSize=35;" parent="GMuKRCzSjl4kFnSS3_tR-303" vertex="1">
          <mxGeometry width="4" height="4" as="geometry" />
        </mxCell>
        <mxCell id="GMuKRCzSjl4kFnSS3_tR-305" value="" style="ellipse;whiteSpace=wrap;html=1;aspect=fixed;strokeColor=#000000;strokeWidth=3;fillColor=#000000;fontFamily=Times New Roman;fontSize=35;" parent="GMuKRCzSjl4kFnSS3_tR-303" vertex="1">
          <mxGeometry x="30" width="4" height="4" as="geometry" />
        </mxCell>
        <mxCell id="GMuKRCzSjl4kFnSS3_tR-306" value="" style="ellipse;whiteSpace=wrap;html=1;aspect=fixed;strokeColor=#000000;strokeWidth=3;fillColor=#000000;fontFamily=Times New Roman;fontSize=35;" parent="GMuKRCzSjl4kFnSS3_tR-303" vertex="1">
          <mxGeometry x="60" width="4" height="4" as="geometry" />
        </mxCell>
        <mxCell id="GMuKRCzSjl4kFnSS3_tR-307" value="" style="endArrow=classic;html=1;fontFamily=Times New Roman;fontSize=35;exitX=0;exitY=1;exitDx=0;exitDy=0;" parent="1" source="GMuKRCzSjl4kFnSS3_tR-171" target="GMuKRCzSjl4kFnSS3_tR-137" edge="1">
          <mxGeometry width="50" height="50" relative="1" as="geometry">
            <mxPoint x="1273.3600000000001" y="1974.3200000000002" as="sourcePoint" />
            <mxPoint x="868.2842712474621" y="2121.7157287525374" as="targetPoint" />
          </mxGeometry>
        </mxCell>
        <mxCell id="GMuKRCzSjl4kFnSS3_tR-311" value="h&lt;sub&gt;2&lt;/sub&gt;&lt;sup&gt;2&lt;/sup&gt;" style="ellipse;whiteSpace=wrap;html=1;aspect=fixed;strokeColor=#000000;strokeWidth=3;fillColor=#dae8fc;fontFamily=Times New Roman;fontSize=35;" parent="1" vertex="1">
          <mxGeometry x="1000" y="2260" width="80" height="80" as="geometry" />
        </mxCell>
        <mxCell id="GMuKRCzSjl4kFnSS3_tR-188" value="a&lt;sub&gt;&lt;font style=&quot;font-size: 25px&quot;&gt;K+1&lt;/font&gt;&lt;/sub&gt;" style="ellipse;whiteSpace=wrap;html=1;aspect=fixed;strokeColor=#000000;strokeWidth=3;fillColor=#ffe6cc;fontFamily=Times New Roman;fontSize=35;" parent="1" vertex="1">
          <mxGeometry x="850" y="2000" width="80" height="80" as="geometry" />
        </mxCell>
        <mxCell id="GMuKRCzSjl4kFnSS3_tR-189" value="a&lt;sub&gt;P-2&lt;/sub&gt;" style="ellipse;whiteSpace=wrap;html=1;aspect=fixed;strokeColor=#000000;strokeWidth=3;fillColor=#ffe6cc;fontFamily=Times New Roman;fontSize=35;" parent="1" vertex="1">
          <mxGeometry x="1180" y="2000" width="80" height="80" as="geometry" />
        </mxCell>
        <mxCell id="GMuKRCzSjl4kFnSS3_tR-315" value="&lt;font style=&quot;font-size: 35px;&quot;&gt;Encoder&lt;/font&gt;" style="text;html=1;strokeColor=none;fillColor=none;align=center;verticalAlign=middle;whiteSpace=wrap;rounded=0;dashed=1;fontFamily=Times New Roman;fontSize=35;" parent="1" vertex="1">
          <mxGeometry x="488" y="950" width="92" height="20" as="geometry" />
        </mxCell>
        <mxCell id="GMuKRCzSjl4kFnSS3_tR-316" value="&lt;font style=&quot;font-size: 35px;&quot;&gt;Decoder&lt;/font&gt;" style="text;html=1;strokeColor=none;fillColor=none;align=center;verticalAlign=middle;whiteSpace=wrap;rounded=0;dashed=1;fontFamily=Times New Roman;fontSize=35;" parent="1" vertex="1">
          <mxGeometry x="1314" y="2520" width="92" height="20" as="geometry" />
        </mxCell>
        <mxCell id="GMuKRCzSjl4kFnSS3_tR-320" value="Referencing Layer" style="text;html=1;strokeColor=none;fillColor=none;align=center;verticalAlign=middle;whiteSpace=wrap;rounded=0;dashed=1;fontFamily=Times New Roman;fontSize=35;labelBackgroundColor=#ffffff;" parent="1" vertex="1">
          <mxGeometry x="450" y="1830" width="140" height="60" as="geometry" />
        </mxCell>
      </root>
    </mxGraphModel>
  </diagram>
</mxfile>
